# Aspose.3D Wavefront OBJ Exporter
# Copyright 2004-2020 Aspose Pty Ltd.
# File created: 1/13/2021 12:35:25 AM


#
# object obj_64105825
#

v 1.0000009536743164 1.0000009536743164 9.999999974752427E-07
v 2.0000009536743164 9.999999974752427E-07 2.0000009536743164
v 9.999999974752427E-07 9.999999974752427E-07 2.0000009536743164
v 2.0000009536743164 2.0000009536743164 2.0000009536743164
v 9.999999974752427E-07 2.0000009536743164 2.0000009536743164
v 1.0000009536743164 1.0000009536743164 4.0000009536743164
# 6 vertices

vn 0 -0.89442718029022224 -0.44721359014511112
vn 0.89442718029022224 0 -0.44721359014511112
vn 0 0.89442718029022224 -0.44721359014511112
vn -0.89442718029022224 1.48952054028759E-16 -0.44721359014511112
vn 0 -0.89442718029022224 0.44721359014511112
vn -0.89442718029022224 1.48952054028759E-16 0.44721359014511112
vn 0 0.89442718029022224 0.44721359014511112
vn 0.89442718029022224 0 0.44721359014511112
# 8 vertex normals

g obj_64105825
s 1
f 1//1 2//1 3//1
f 1//2 4//2 2//2
f 1//3 5//3 4//3
f 1//4 3//4 5//4
f 6//5 3//5 2//5
f 6//6 5//6 3//6
f 6//7 4//7 5//7
f 6//8 2//8 4//8
#8 polygons

